<svg xmlns="http://www.w3.org/2000/svg" width="68" height="25.012" viewBox="0 0 68 25.012">
  <defs>
    <style>
      .cls-1 {
        fill: #fff;
      }
    </style>
  </defs>
  <g id="Group_6" data-name="Group 6" transform="translate(1558.773 -86.56)">
    <path id="Path_1" data-name="Path 1" class="cls-1" d="M-1549.029,104.3c-.065-.109-.132-.215-.195-.324-.959-1.659-1.923-3.316-2.872-4.982a.5.5,0,0,0-.514-.295c-.447.019-.894.005-1.385.005-.048.943-.016,1.868-.021,2.791s0,1.857,0,2.8h-4.756V86.858c.107-.008.206-.022.306-.022,2.308,0,4.616-.009,6.925,0a7.836,7.836,0,0,1,3.47.75,5.417,5.417,0,0,1,3.194,4.133,5.537,5.537,0,0,1-2.46,5.826l-.25.172,3.645,6.313.064-.015V86.9c.276-.084,11.939-.115,12.586-.045a35.76,35.76,0,0,1,.038,4.017c-1.3.024-2.6.008-3.907.011s-2.592,0-3.912,0v2.674c1.167,0,2.333,0,3.5,0h3.506a36.092,36.092,0,0,1,.035,4.042c-1.161.008-2.329,0-3.5,0h-3.5a15.218,15.218,0,0,0-.028,2.657h8.227V104.3ZM-1554,94.628c.964,0,1.881.021,2.8-.011a4.149,4.149,0,0,0,1.069-.232,1.426,1.426,0,0,0,.77-.607,1.8,1.8,0,0,0-.917-2.682,4.221,4.221,0,0,0-1.355-.208c-.7,0-1.4,0-2.1,0a2.588,2.588,0,0,0-.263.026Z" transform="translate(0 -0.196)"/>
    <path id="Path_2" data-name="Path 2" class="cls-1" d="M-1383.185,90.684v2.672h7.016a38.694,38.694,0,0,1,.029,4.047h-7a16.083,16.083,0,0,0-.022,2.671h8.227v3.453c.137-.276.912-5.812,1.248-8.48.356-2.821.765-5.635,1.156-8.487l4.752.65c-.608,4.445-1.211,8.861-1.82,13.312l7.3,1-.547,4.009-12-1.64-.11.22h-12.99V86.663h12.586v4.021Z" transform="translate(-128.474)"/>
    <path id="Path_3" data-name="Path 3" class="cls-1" d="M-1445.414,104.361V86.9c.11-.009.209-.024.308-.024,2.308,0,4.616-.008,6.924,0a7.806,7.806,0,0,1,2.9.524,4.541,4.541,0,0,1,2.324,6.287,4.106,4.106,0,0,1-1.108,1.34c.093.053.166.1.242.136a4.14,4.14,0,0,1,2.458,3.77,5.484,5.484,0,0,1-.174,1.74,4.392,4.392,0,0,1-2.2,2.782,7.211,7.211,0,0,1-2.821.826c-.559.055-1.123.074-1.684.076-2.251.008-4.5,0-6.752,0Zm4.778-4.1c.054.024.074.042.094.042,1.112,0,2.225.013,3.337-.017a1.984,1.984,0,0,0,.812-.247,1.274,1.274,0,0,0,.735-1.228,1.325,1.325,0,0,0-.786-1.2,2.343,2.343,0,0,0-1.1-.231q-1.394,0-2.788,0c-.1,0-.2.016-.3.025Zm.009-6.968a.8.8,0,0,0,.148.032c.792,0,1.584.017,2.375-.011a2.257,2.257,0,0,0,.825-.205,1,1,0,0,0,.6-.966,1.054,1.054,0,0,0-.595-1.008,1.9,1.9,0,0,0-.9-.206c-.746,0-1.491,0-2.237,0-.066,0-.133.013-.216.021Z" transform="translate(-85.255 -0.233)"/>
    <path id="Path_4" data-name="Path 4" class="cls-1" d="M-1491.033,171.457v-5.084h3.845v1.28h-2.213v.787h1.76v1.229h-1.76v1.787Z" transform="translate(-50.946 -60.026)"/>
    <path id="Path_5" data-name="Path 5" class="cls-1" d="M-1465.344,168.522a2.667,2.667,0,0,1,.709-1.961,2.6,2.6,0,0,1,1.934-.718,2.587,2.587,0,0,1,1.929.718,2.671,2.671,0,0,1,.707,1.961,2.671,2.671,0,0,1-.707,1.958,2.581,2.581,0,0,1-1.929.72,2.591,2.591,0,0,1-1.934-.72,2.667,2.667,0,0,1-.709-1.958m1.646,0a1.841,1.841,0,0,0,.241,1.059.865.865,0,0,0,.756.338.855.855,0,0,0,.749-.336,1.861,1.861,0,0,0,.238-1.061,1.869,1.869,0,0,0-.238-1.065.854.854,0,0,0-.749-.337.866.866,0,0,0-.756.338,1.852,1.852,0,0,0-.241,1.063" transform="translate(-70.266 -59.628)"/>
    <path id="Path_6" data-name="Path 6" class="cls-1" d="M-1433.362,168.522a2.667,2.667,0,0,1,.709-1.961,2.6,2.6,0,0,1,1.934-.718,2.587,2.587,0,0,1,1.93.718,2.673,2.673,0,0,1,.707,1.961,2.673,2.673,0,0,1-.707,1.958,2.582,2.582,0,0,1-1.93.72,2.592,2.592,0,0,1-1.934-.72,2.666,2.666,0,0,1-.709-1.958m1.646,0a1.84,1.84,0,0,0,.242,1.059.864.864,0,0,0,.755.338.853.853,0,0,0,.749-.336,1.859,1.859,0,0,0,.238-1.061,1.867,1.867,0,0,0-.238-1.065.853.853,0,0,0-.749-.337.865.865,0,0,0-.755.338,1.851,1.851,0,0,0-.242,1.063" transform="translate(-94.319 -59.628)"/>
    <path id="Path_7" data-name="Path 7" class="cls-1" d="M-1400.5,171.457v-5.084h1.974a6.82,6.82,0,0,1,1.12.067,2.023,2.023,0,0,1,.64.223,1.963,1.963,0,0,1,.794.873,3.229,3.229,0,0,1,.266,1.384,2.932,2.932,0,0,1-.329,1.451,2.029,2.029,0,0,1-.972.875,2.174,2.174,0,0,1-.623.162,10.474,10.474,0,0,1-1.2.048Zm1.632-1.287h.439a1.082,1.082,0,0,0,.847-.273,1.521,1.521,0,0,0,.236-.976,1.521,1.521,0,0,0-.242-.974,1.023,1.023,0,0,0-.821-.286h-.459Z" transform="translate(-119.031 -60.026)"/>
    <path id="Path_8" data-name="Path 8" class="cls-1" d="M-1370.554,169.474h1.588a.638.638,0,0,0,.238.4.9.9,0,0,0,.514.121.874.874,0,0,0,.45-.1.3.3,0,0,0,.164-.271q0-.276-.686-.449l-.21-.052q-.564-.145-.9-.264a2.271,2.271,0,0,1-.485-.223,1.38,1.38,0,0,1-.44-.5,1.479,1.479,0,0,1-.147-.67,1.408,1.408,0,0,1,.57-1.187,2.542,2.542,0,0,1,1.567-.431,2.56,2.56,0,0,1,1.542.413,1.573,1.573,0,0,1,.635,1.182h-1.55a.483.483,0,0,0-.2-.335.8.8,0,0,0-.457-.11.707.707,0,0,0-.39.086.3.3,0,0,0-.127.262q0,.253.67.421c.039.012.069.02.09.024l.293.073a4.337,4.337,0,0,1,1.159.407,1.455,1.455,0,0,1,.494.511,1.394,1.394,0,0,1,.156.677,1.535,1.535,0,0,1-.588,1.294,2.719,2.719,0,0,1-1.686.452,2.577,2.577,0,0,1-1.6-.452,1.711,1.711,0,0,1-.665-1.273" transform="translate(-141.556 -59.627)"/>
  </g>
</svg>
